HIERARCHY
ROOT Hips
{
 OFFSET 0.000000 0.000000 0.000000
 CHANNELS 6 Xposition Yposition Zposition Yrotation Xrotation Zrotation
 JOINT Chest
 {
  OFFSET 0.000000 9.581000 -0.001100
  CHANNELS 3 Yrotation Xrotation Zrotation
  JOINT Chest2
  {
   OFFSET 0.000000 9.561100 0.002200
   CHANNELS 3 Yrotation Xrotation Zrotation
   JOINT Chest3
   {
    OFFSET 0.000000 9.521100 0.000000
    CHANNELS 3 Yrotation Xrotation Zrotation
    JOINT Chest4
    {
     OFFSET 0.000000 9.511400 0.000000
     CHANNELS 3 Yrotation Xrotation Zrotation
     JOINT Neck
     {
      OFFSET 0.000000 14.375100 0.000000
      CHANNELS 3 Yrotation Xrotation Zrotation
      JOINT Head
      {
       OFFSET 0.000000 8.901200 0.004600
       CHANNELS 3 Yrotation Xrotation Zrotation
       End Site
       {
        OFFSET 0.000000 16.962200 0.002400
       }
      }
     }
     JOINT RightCollar
     {
      OFFSET -2.920100 9.518800 0.000000
      CHANNELS 3 Yrotation Xrotation Zrotation
      JOINT RightShoulder
      {
       OFFSET -13.664500 0.000000 0.000000
       CHANNELS 3 Yrotation Xrotation Zrotation
       JOINT RightElbow
       {
        OFFSET 0.000000 -29.999200 0.000000
        CHANNELS 3 Yrotation Xrotation Zrotation
        JOINT RightWrist
        {
         OFFSET 0.000000 -24.253600 0.000000
         CHANNELS 3 Yrotation Xrotation Zrotation
         End Site
         {
          OFFSET 0.000000 -17.918900 0.000000
         }
        }
       }
      }
     }
     JOINT LeftCollar
     {
      OFFSET 2.920100 9.518800 0.000000
      CHANNELS 3 Yrotation Xrotation Zrotation
      JOINT LeftShoulder
      {
       OFFSET 13.664500 0.000000 0.000000
       CHANNELS 3 Yrotation Xrotation Zrotation
       JOINT LeftElbow
       {
        OFFSET 0.000000 -29.999200 0.000000
        CHANNELS 3 Yrotation Xrotation Zrotation
        JOINT LeftWrist
        {
         OFFSET 0.000000 -24.253600 0.000000
         CHANNELS 3 Yrotation Xrotation Zrotation
         End Site
         {
          OFFSET 0.000000 -17.918900 0.000000
         }
        }
       }
      }
     }
    }
   }
  }
 }
 JOINT RightHip
 {
  OFFSET -7.797300 0.005300 0.000500
  CHANNELS 3 Yrotation Xrotation Zrotation
  JOINT RightKnee
  {
   OFFSET 0.000000 -40.663400 -0.000500
   CHANNELS 3 Yrotation Xrotation Zrotation
   JOINT RightAnkle
   {
    OFFSET 0.000000 -39.523700 -0.000900
    CHANNELS 3 Yrotation Xrotation Zrotation
    JOINT RightToe
    {
     OFFSET 0.000000 -6.418000 14.485300
     CHANNELS 3 Yrotation Xrotation Zrotation
     End Site
     {
      OFFSET 0.000000 -1.465200 6.326400
     }
    }
   }
  }
 }
 JOINT LeftHip
 {
  OFFSET 7.797300 0.005300 0.000500
  CHANNELS 3 Yrotation Xrotation Zrotation
  JOINT LeftKnee
  {
   OFFSET 0.000000 -40.663400 -0.000500
   CHANNELS 3 Yrotation Xrotation Zrotation
   JOINT LeftAnkle
   {
    OFFSET 0.000000 -39.523700 -0.000900
    CHANNELS 3 Yrotation Xrotation Zrotation
    JOINT LeftToe
    {
     OFFSET 0.000000 -6.418000 14.485300
     CHANNELS 3 Yrotation Xrotation Zrotation
     End Site
     {
      OFFSET 0.000000 -1.465200 6.326400
     }
    }
   }
  }
 }
}
MOTION
Frames: 16
Frame Time: 0.008333
-15.240933 126.911616 20.345685 -171.937403 -48.792372 -3.130308 -3.145592 26.990119 1.264656 -0.580472 4.683909 0.320837 -0.888441 7.385051 0.487062 -2.590467 22.024148 1.134522 -2.972121 21.467109 -12.427629 -0.463035 -2.073761 -13.251389 8.439437 -0.523622 3.000096 14.682426 -36.066982 -1.950820 -92.575751 -46.491490 150.684049 -5.799282 8.861305 7.823767 -11.735565 -1.806478 -1.220942 -23.300818 -33.239193 9.021341 17.024010 -19.773403 -69.213684 -2.162531 5.166181 -26.884090 -4.481191 -23.341631 -1.335812 -4.939139 77.449809 -3.512981 10.662137 -10.562138 1.398762 -0.000132 -0.002132 -0.000058 7.683341 4.019603 3.261276 130.426165 65.412852 151.436401 3.654311 14.330454 6.202468 0.001140 -0.000521 0.000505
-15.241169 126.911672 20.346608 -171.926942 -48.799523 -3.142624 -3.144436 26.990923 1.271124 -0.574361 4.674563 0.321397 -0.887407 7.383710 0.488308 -2.564233 21.997439 1.148559 -3.008640 21.490433 -12.432965 -0.484822 -2.110438 -13.264906 8.406231 -0.496451 3.003302 14.698916 -36.081177 -1.959988 -92.577637 -46.490071 150.685865 -5.801071 8.863821 7.833284 -11.777129 -1.783870 -1.227823 -23.271234 -33.245857 9.018695 17.015526 -19.793898 -69.222507 -2.128514 5.181830 -26.881017 -4.480066 -23.334253 -1.338957 -4.940401 77.451167 -3.513311 10.684028 -10.565181 1.400551 0.000569 -0.002311 0.000252 7.679852 4.026496 3.265586 130.430263 65.409932 151.441507 3.652760 14.329689 6.191596 0.000182 0.001249 0.000081
-15.240511 126.911555 20.347462 -171.925358 -48.804348 -3.153602 -3.121898 26.973684 1.287430 -0.570817 4.669718 0.323725 -0.893482 7.393321 0.492009 -2.568054 22.004450 1.151136 -3.018087 21.444760 -12.448742 -0.496639 -2.107853 -13.273615 8.400039 -0.501823 3.002622 14.707081 -36.091348 -1.963574 -92.570085 -46.490296 150.671085 -5.793849 8.862979 7.857931 -11.793316 -1.793440 -1.227295 -23.245815 -33.239746 9.012058 17.008862 -19.829871 -69.231794 -2.118206 5.166903 -26.846862 -4.477172 -23.327096 -1.332400 -4.941233 77.450146 -3.511449 10.687864 -10.571856 1.395377 0.000054 -0.001725 0.000024 7.685327 4.030064 3.274195 130.427086 65.406844 151.444173 3.652496 14.330024 6.180339 -0.000177 0.001690 -0.000079
-15.241264 126.911818 20.348000 -171.918683 -48.811015 -3.159963 -3.114265 26.969870 1.294567 -0.569285 4.666738 0.324736 -0.894021 7.392868 0.493054 -2.568155 22.008210 1.153951 -3.027702 21.436901 -12.455708 -0.504801 -2.114810 -13.280452 8.398114 -0.563184 3.002457 14.684638 -36.032538 -1.942361 -92.568687 -46.489229 150.677703 -5.782424 8.864219 7.881984 -11.849726 -1.865073 -1.223749 -23.162454 -33.179434 8.978005 16.998884 -19.879894 -69.239234 -2.096372 5.159598 -26.803935 -4.471386 -23.320372 -1.336896 -4.933857 77.452600 -3.499372 10.686335 -10.574355 1.397975 0.000200 -0.002056 0.000089 7.694430 4.035699 3.274134 130.410350 65.407011 151.436646 3.656702 14.335606 6.181946 -0.001928 -0.000345 -0.000854
-15.241994 126.911590 20.348873 -171.919369 -48.813226 -3.159980 -3.104358 26.962140 1.300746 -0.568082 4.663769 0.325750 -0.900197 7.400571 0.491724 -2.530915 21.967132 1.171873 -3.063552 21.447136 -12.475491 -0.516898 -2.136118 -13.312413 8.359410 -0.551947 3.005150 14.684219 -36.038330 -1.930958 -92.549791 -46.494751 150.662846 -5.782463 8.869520 7.883968 -11.909696 -1.860333 -1.230178 -23.117680 -33.154778 8.962985 16.989672 -19.939106 -69.245780 -2.077348 5.155582 -26.766307 -4.464322 -23.318031 -1.336303 -4.948685 77.454894 -3.509570 10.668929 -10.578993 1.394067 -0.000118 -0.001907 -0.000052 7.697873 4.037369 3.275506 130.411574 65.408867 151.438693 3.660338 14.344343 6.164433 -0.003229 0.001263 -0.001431
-15.242085 126.911170 20.349814 -171.913967 -48.812892 -3.167607 -3.099372 26.952240 1.310546 -0.567194 4.660881 0.326647 -0.895996 7.397352 0.490789 -2.535488 21.972243 1.175775 -3.064685 21.425169 -12.495848 -0.523082 -2.158132 -13.353418 8.349928 -0.575116 3.002197 14.688910 -36.046094 -1.924891 -92.531273 -46.494900 150.644138 -5.790671 8.874519 7.865552 -11.931395 -1.879481 -1.229256 -23.082937 -33.138428 8.952450 16.976541 -20.005911 -69.251136 -2.112539 5.132197 -26.692708 -4.452057 -23.317144 -1.338947 -4.970861 77.455503 -3.516448 10.664888 -10.578096 1.384281 -0.000659 -0.001108 -0.000292 7.696399 4.037277 3.278951 130.410912 65.408933 151.438901 3.651827 14.335289 6.186861 -0.002742 -0.002573 -0.001215
-15.242206 126.911115 20.350419 -171.908217 -48.814977 -3.174997 -3.095825 26.944211 1.317813 -0.566228 4.657898 0.327335 -0.894619 7.393690 0.496353 -2.539900 21.978217 1.174773 -3.066370 21.402894 -12.517804 -0.518123 -2.166492 -13.395971 8.337090 -0.598498 2.998326 14.697849 -36.051907 -1.914785 -92.516057 -46.499286 150.622392 -5.784198 8.884200 7.894439 -11.941909 -1.879879 -1.233612 -23.066853 -33.137730 8.956251 16.967848 -20.075143 -69.250922 -2.095922 5.139763 -26.674417 -4.448667 -23.313784 -1.346157 -4.930362 77.456940 -3.466765 10.675758 -10.576226 1.377323 0.000893 -0.001007 0.000396 7.697151 4.038821 3.284016 130.417584 65.406531 151.452461 3.646467 14.327641 6.183257 0.000040 -0.001642 0.000018
-15.241566 126.911271 20.350784 -171.902492 -48.818295 -3.186612 -3.091543 26.939896 1.327153 -0.563320 4.653056 0.328185 -0.892728 7.388817 0.498723 -2.534171 21.972499 1.179045 -3.064994 21.378278 -12.561094 -0.511007 -2.155713 -13.421752 8.312683 -0.610090 3.000805 14.708753 -36.061219 -1.908052 -92.503585 -46.498986 150.603847 -5.760406 8.893536 7.982546 -11.978281 -1.898400 -1.224487 -23.024123 -33.112237 8.935499 16.954975 -20.201702 -69.248548 -2.023810 5.158603 -26.657871 -4.448323 -23.308240 -1.346806 -4.899579 77.457395 -3.431707 10.691995 -10.574155 1.372726 0.001346 -0.001091 0.000596 7.695223 4.041156 3.291647 130.414640 65.401212 151.457574 3.635851 14.323279 6.172341 0.002738 -0.001458 0.001213
-15.241977 126.911317 20.351324 -171.894571 -48.820869 -3.193180 -3.094957 26.939890 1.327882 -0.558814 4.647039 0.329121 -0.891213 7.379504 0.498294 -2.530464 21.967853 1.182980 -3.069593 21.385844 -12.577173 -0.491436 -2.181614 -13.485733 8.297174 -0.605160 3.004567 14.707272 -36.117872 -1.900171 -92.479188 -46.497934 150.579768 -5.787878 8.911600 7.970212 -12.033795 -1.966806 -1.190486 -22.934156 -33.046793 8.860931 16.940659 -20.291733 -69.235989 -1.989336 5.164031 -26.644930 -4.447841 -23.303011 -1.345450 -4.920970 77.458971 -3.444375 10.656528 -10.576853 1.369100 -0.001182 -0.001275 -0.000524 7.689723 4.043419 3.292127 130.423184 65.400849 151.467280 3.636222 14.322487 6.164814 0.003092 -0.001380 0.001370
-15.242216 126.911148 20.352050 -171.884829 -48.821605 -3.201785 -3.092154 26.932302 1.333398 -0.564531 4.652970 0.329138 -0.883545 7.368718 0.500862 -2.514431 21.950258 1.200366 -3.082133 21.387414 -12.620815 -0.469759 -2.198771 -13.537897 8.269436 -0.623277 2.999379 14.696070 -36.079917 -1.884020 -92.489676 -46.488362 150.602424 -5.792144 8.925295 7.980330 -12.071159 -1.963942 -1.196778 -22.936286 -33.037260 8.868612 16.947572 -20.345454 -69.230973 -1.974412 5.165609 -26.628366 -4.449155 -23.300446 -1.352947 -4.899996 77.458037 -3.426155 10.693501 -10.573711 1.368553 0.000875 -0.000980 0.000387 7.683122 4.045249 3.292581 130.429070 65.394896 151.474122 3.635149 14.313715 6.159173 0.003117 0.001506 0.001381
-15.242583 126.911225 20.352576 -171.881557 -48.824611 -3.204860 -3.083215 26.929043 1.344259 -0.564440 4.651356 0.329862 -0.880036 7.356927 0.506709 -2.526277 21.952690 1.202379 -3.044242 21.337311 -12.698064 -0.460237 -2.181129 -13.553933 8.262336 -0.658652 2.992924 14.672328 -36.072111 -1.865383 -92.445415 -46.475734 150.564450 -5.782084 8.933509 8.035423 -12.091459 -1.976313 -1.201897 -22.949418 -33.026280 8.882389 16.958868 -20.389364 -69.222756 -1.961492 5.163087 -26.609785 -4.448499 -23.298111 -1.355565 -4.897336 77.460027 -3.423581 10.696056 -10.564989 1.366252 0.001553 -0.000288 0.000688 7.681623 4.049170 3.293341 130.428028 65.394355 151.473368 3.637299 14.317863 6.142412 0.000667 0.003550 0.000296
-15.242434 126.911363 20.353016 -171.882170 -48.828164 -3.208134 -3.083044 26.916351 1.356110 -0.560006 4.659050 0.325307 -0.883119 7.362454 0.503853 -2.528088 21.937996 1.217215 -3.031152 21.324585 -12.739948 -0.421063 -2.214618 -13.628786 8.259485 -0.670391 2.982086 14.646029 -36.118397 -1.848215 -92.347046 -46.471299 150.460749 -5.763566 8.933723 8.173076 -12.140686 -2.070622 -1.184257 -22.882762 -32.947444 8.821993 16.958559 -20.430442 -69.212455 -1.948443 5.156361 -26.587903 -4.446691 -23.292897 -1.354980 -4.890782 77.458739 -3.416402 10.696083 -10.563305 1.368100 0.002461 -0.000508 0.001091 7.684161 4.053399 3.298293 130.424997 65.396024 151.472852 3.633203 14.318453 6.143911 0.000223 0.002295 0.000099
-15.242400 126.911408 20.353540 -171.883041 -48.831130 -3.210427 -3.085265 26.912589 1.360675 -0.568321 4.643163 0.334933 -0.877602 7.369236 0.499078 -2.534498 21.937079 1.223331 -3.027261 21.329571 -12.770045 -0.365236 -2.277967 -13.728968 8.263754 -0.661636 2.965621 14.627408 -36.159174 -1.842694 -92.281576 -46.446282 150.409908 -5.746646 8.950644 8.254960 -12.155766 -2.112736 -1.187068 -22.868934 -32.913670 8.803594 16.954974 -20.465089 -69.202234 -1.933531 5.150667 -26.565516 -4.446797 -23.289611 -1.351445 -4.916783 77.457981 -3.442159 10.681362 -10.558752 1.370486 0.000952 -0.000765 0.000422 7.686833 4.058024 3.301812 130.426497 65.398226 151.475481 3.632438 14.314836 6.150234 -0.000487 0.001236 -0.000216
-15.242316 126.911188 20.354297 -171.882019 -48.831924 -3.214093 -3.085954 26.911523 1.364144 -0.576718 4.635652 0.340710 -0.887024 7.354270 0.510163 -2.536643 21.945095 1.217888 -2.996387 21.301564 -12.825265 -0.318272 -2.311841 -13.802113 8.270117 -0.682558 2.940338 14.601847 -36.158332 -1.822718 -92.239141 -46.418275 150.378837 -5.735118 8.966729 8.312438 -12.163486 -2.156937 -1.191748 -22.857035 -32.882111 8.783861 16.966437 -20.471502 -69.199520 -1.943760 5.151442 -26.540254 -4.448803 -23.289933 -1.347886 -4.945778 77.457584 -3.475037 10.683202 -10.550136 1.373033 0.000679 -0.000302 0.000301 7.687436 4.061830 3.303553 130.437687 65.399808 151.490474 3.631493 14.306155 6.153424 0.000965 0.001918 0.000428
-15.241536 126.911025 20.354935 -171.887040 -48.833497 -3.217010 -3.091915 26.905378 1.371210 -0.571203 4.639038 0.338924 -0.890626 7.349748 0.513861 -2.538684 21.945912 1.217182 -2.939990 21.224413 -12.890025 -0.280130 -2.305722 -13.848736 8.275010 -0.750561 2.916429 14.556183 -36.121155 -1.781321 -92.184533 -46.388592 150.340779 -5.713798 8.977663 8.364605 -12.175933 -2.205616 -1.183409 -22.827587 -32.846875 8.749594 16.963623 -20.484673 -69.194673 -1.935694 5.147944 -26.526760 -4.449553 -23.288886 -1.340088 -4.935589 77.456672 -3.469677 10.680368 -10.546295 1.376368 0.000368 -0.001131 0.000163 7.691501 4.064436 3.309489 130.441636 65.400882 151.497564 3.630223 14.302644 6.155187 0.001980 0.001308 0.000877
-15.241409 126.910539 20.355944 -171.885183 -48.832229 -3.220312 -3.101185 26.897795 1.376128 -0.568358 4.641171 0.336112 -0.899024 7.340757 0.520858 -2.538451 21.950401 1.211953 -2.895732 21.167022 -12.941719 -0.230996 -2.327603 -13.916371 8.278331 -0.757833 2.902395 14.541876 -36.122218 -1.771081 -92.168471 -46.365993 150.338754 -5.702202 8.992161 8.396218 -12.179872 -2.226390 -1.185343 -22.820197 -32.833535 8.738034 16.910552 -20.573692 -69.164772 -1.840070 5.124941 -26.515195 -4.446795 -23.291170 -1.338161 -4.951304 77.456600 -3.481739 10.667809 -10.542471 1.377312 -0.000620 -0.001906 -0.000275 7.689397 4.065565 3.309537 130.439856 65.401508 151.496517 3.625110 14.296484 6.168081 0.002254 0.000217 0.000999
